<svg xmlns="http://www.w3.org/2000/svg" xmlns:xlink="http://www.w3.org/1999/xlink" width="165" height="160.00001525878906" viewBox="0 0 165 160.00001525878906" fill="none">
<path d="M89.1645 160C67.8974 160 44.9532 146.686 44.9532 117.473C44.9532 88.2593 67.8974 74.9458 89.1645 74.9458C100.98 74.9458 111.88 78.8258 119.96 85.9009C128.726 93.6608 133.376 104.616 133.376 117.473C133.376 130.33 128.726 141.209 119.96 148.969C111.88 156.044 100.903 160 89.1645 160Z"   fill="url(#linear_fill_T_UobH3PVxKYvjOkjxxnw)" >
</path>
<path d="M125.669 92.1926C129.732 98.7352 131.851 106.525 131.851 115.191C131.851 128.048 127.202 138.927 118.436 146.687C110.356 153.762 99.379 157.718 87.6401 157.718C73.8737 157.718 59.4364 152.126 50.9143 140.266C59.1163 153.701 74.5444 160 89.1647 160C100.904 160 111.88 156.044 119.96 148.969C128.726 141.209 133.376 130.33 133.376 117.473C133.376 107.781 130.731 99.1689 125.669 92.1926Z"   fill="#EB8F00" >
</path>
<path d="M103.686 95.1976C106.59 95.1976 109.22 99.4959 109.22 106.609C109.22 113.722 106.59 118.021 103.686 118.021C100.789 118.021 98.1595 113.73 98.1595 106.609C98.1595 99.4883 100.789 95.1976 103.686 95.1976ZM75.1925 95.1976C72.1054 95.1976 69.2926 99.4959 69.2926 106.609C69.2926 113.722 72.1054 118.021 75.1925 118.021C78.2873 118.021 81.1 113.73 81.1 106.609C81.1 99.4883 78.2873 95.1976 75.1925 95.1976Z"   fill="#422B0D" >
</path>
<path d="M75.0246 97.9896C74.9698 97.9569 74.9135 97.927 74.8558 97.8997C74.798 97.8725 74.739 97.8482 74.6789 97.8268C74.6187 97.8053 74.5577 97.7868 74.4957 97.7714C74.4337 97.7559 74.3712 97.7435 74.308 97.7342C74.2448 97.7249 74.1813 97.7187 74.1175 97.7155C74.0537 97.7124 73.99 97.7125 73.9262 97.7156C73.8624 97.7188 73.7989 97.725 73.7357 97.7344C73.6725 97.7438 73.61 97.7562 73.548 97.7718C73.4861 97.7872 73.425 97.8057 73.3648 97.8272C73.3047 97.8487 73.2458 97.873 73.1881 97.9003C73.1304 97.9276 73.0741 97.9576 73.0193 97.9904C72.9645 98.0232 72.9115 98.0585 72.8602 98.0965C72.8088 98.1345 72.7595 98.1748 72.7122 98.2177C72.6649 98.2605 72.6198 98.3055 72.5769 98.3527C72.534 98.3999 72.4935 98.4491 72.4554 98.5004C72.4173 98.5515 72.3819 98.6045 72.3491 98.6591C72.3338 98.6896 72.3109 98.72 72.2957 98.7504C71.5944 99.5644 71.6783 100.797 72.4939 101.497C72.5168 101.52 72.5396 101.535 72.5701 101.558C73.4848 102.113 74.6816 101.816 75.238 100.903C75.2609 100.865 75.2761 100.835 75.299 100.797C76.0003 99.9753 75.9088 98.7428 75.0856 98.0429C75.0671 98.023 75.0468 98.0052 75.0246 97.9896ZM104.113 97.9896C103.183 97.4419 101.978 97.7462 101.429 98.6743C101.414 98.6972 101.399 98.7276 101.384 98.7504C100.69 99.5797 100.804 100.805 101.635 101.497C101.643 101.504 101.658 101.512 101.666 101.52C102.58 102.075 103.777 101.778 104.334 100.865C104.356 100.827 104.372 100.797 104.395 100.759C105.088 99.9296 104.974 98.7048 104.143 98.0125C104.135 98.0049 104.12 97.9973 104.113 97.9896Z"   fill="#896024" >
</path>
<path d="M118.489 124.107C118.425 123.992 118.356 123.88 118.282 123.771C118.208 123.662 118.13 123.557 118.047 123.455C117.963 123.353 117.876 123.255 117.784 123.161C117.692 123.066 117.596 122.977 117.496 122.891C117.395 122.805 117.292 122.725 117.185 122.648C117.077 122.572 116.967 122.5 116.853 122.434C116.739 122.368 116.623 122.306 116.504 122.25C116.385 122.194 116.263 122.143 116.14 122.098C116.016 122.053 115.89 122.013 115.763 121.979C115.636 121.945 115.507 121.916 115.378 121.894C115.248 121.871 115.117 121.854 114.986 121.843C114.855 121.832 114.723 121.827 114.592 121.827C114.46 121.828 114.328 121.835 114.197 121.847C114.066 121.859 113.936 121.878 113.806 121.902C113.676 121.926 113.548 121.955 113.421 121.991C113.294 122.026 113.169 122.067 113.046 122.114C111.093 122.682 109.122 123.179 107.133 123.605C105.144 124.031 103.143 124.385 101.128 124.667C99.1137 124.949 97.0917 125.158 95.0621 125.294C93.0324 125.43 91.0005 125.494 88.9663 125.484C86.9321 125.494 84.9003 125.431 82.8707 125.294C80.841 125.158 78.8189 124.949 76.8044 124.667C74.7899 124.385 72.7882 124.031 70.7993 123.605C68.8104 123.179 66.8394 122.682 64.8864 122.114C64.7635 122.067 64.6388 122.026 64.5123 121.99C64.3858 121.955 64.2579 121.925 64.1287 121.901C63.9994 121.877 63.8694 121.858 63.7385 121.846C63.6077 121.833 63.4765 121.826 63.345 121.825C63.2136 121.824 63.0823 121.829 62.9513 121.84C62.8203 121.851 62.69 121.868 62.5605 121.89C62.4309 121.912 62.3026 121.94 62.1756 121.974C62.0486 122.008 61.9233 122.047 61.7998 122.092C61.6763 122.137 61.555 122.188 61.436 122.243C61.317 122.299 61.2007 122.36 61.0872 122.426C60.9736 122.492 60.8633 122.563 60.756 122.639C60.6488 122.715 60.5452 122.796 60.4452 122.881C60.3451 122.966 60.2491 123.055 60.1571 123.149C60.0651 123.243 59.9774 123.34 59.8941 123.442C59.8108 123.543 59.7322 123.648 59.6583 123.757C59.5844 123.865 59.5154 123.977 59.4515 124.092C58.4148 126.001 59.1618 128.215 60.0384 130.125C64.9322 140.851 75.7182 147.272 88.9053 147.31L89.0273 147.31C102.214 147.31 113 140.851 117.902 130.125C118.771 128.2 119.525 126.016 118.489 124.107Z"   fill="#422B0D" >
</path>
<path d="M101.171 144.283C100.889 144.024 100.599 143.788 100.31 143.522C99.9247 143.184 99.525 142.865 99.1104 142.564C98.6959 142.263 98.2683 141.982 97.8276 141.721C97.3869 141.46 96.9351 141.22 96.4721 141C96.0091 140.781 95.5369 140.583 95.0555 140.408C94.5742 140.232 94.0857 140.079 93.5902 139.949C93.0946 139.819 92.5941 139.711 92.0884 139.627C91.5829 139.543 91.0746 139.483 90.5634 139.446C90.0522 139.409 89.5404 139.396 89.028 139.406C84.7594 139.338 80.605 140.753 77.2739 143.415C76.9843 143.651 76.6794 143.879 76.3973 144.176C76.1153 144.473 75.9629 144.686 75.7799 144.937C79.9724 146.572 84.4392 147.409 88.9442 147.386L89.0661 147.386C93.3806 147.386 97.6569 146.618 101.697 145.104C101.544 144.815 101.369 144.541 101.171 144.283Z"   fill="#ED7770" >
</path>
<path d="M113.046 122.114C111.093 122.682 109.122 123.179 107.133 123.605C105.145 124.031 103.143 124.385 101.128 124.667C99.1139 124.949 97.0918 125.158 95.0622 125.294C93.0326 125.431 91.0007 125.494 88.9665 125.484C86.9323 125.494 84.9004 125.431 82.8708 125.294C80.8412 125.158 78.8191 124.949 76.8046 124.667C74.7902 124.385 72.7885 124.031 70.7995 123.605C68.8106 123.179 66.8396 122.682 64.8866 122.114C64.7638 122.067 64.6391 122.026 64.5125 121.99C64.386 121.955 64.2581 121.925 64.1289 121.901C63.9997 121.877 63.8696 121.858 63.7388 121.846C63.6079 121.833 63.4767 121.826 63.3453 121.825C63.2138 121.825 63.0826 121.83 62.9516 121.84C62.8205 121.851 62.6902 121.868 62.5607 121.89C62.4311 121.912 62.3029 121.941 62.1758 121.974C62.0488 122.008 61.9236 122.047 61.8 122.092C61.6765 122.137 61.5553 122.188 61.4363 122.243C61.3173 122.299 61.201 122.36 61.0874 122.426C60.9739 122.492 60.8635 122.563 60.7562 122.639C60.649 122.715 60.5454 122.796 60.4454 122.881C60.3453 122.966 60.2493 123.055 60.1573 123.149C60.0653 123.243 59.9776 123.34 59.8943 123.442C59.811 123.544 59.7324 123.649 59.6585 123.757C59.5846 123.866 59.5156 123.977 59.4517 124.092C59.2993 124.381 59.1773 124.685 59.1011 124.997C59.3526 125.126 59.6423 125.256 59.9853 125.393C61.1273 125.964 62.2853 126.5 63.4594 127.002C64.6335 127.504 65.8215 127.971 67.0233 128.402C68.2252 128.834 69.4389 129.229 70.6644 129.588C71.8899 129.947 73.125 130.27 74.3698 130.556C75.6145 130.842 76.8667 131.09 78.1262 131.302C79.3859 131.513 80.6506 131.687 81.9205 131.823C83.1905 131.96 84.4634 132.058 85.7392 132.118C87.015 132.179 88.2915 132.202 89.5687 132.186C99.4095 132.3 109.136 130.163 118.024 125.948C118.382 125.796 118.679 125.651 118.946 125.514C118.885 125.02 118.725 124.533 118.489 124.092C118.425 123.977 118.356 123.865 118.282 123.756C118.208 123.648 118.129 123.543 118.046 123.441C117.963 123.339 117.875 123.241 117.782 123.147C117.69 123.054 117.594 122.964 117.494 122.879C117.394 122.793 117.29 122.713 117.183 122.637C117.075 122.561 116.965 122.49 116.851 122.423C116.737 122.357 116.621 122.296 116.502 122.24C116.383 122.185 116.261 122.134 116.137 122.089C116.014 122.044 115.888 122.005 115.761 121.971C115.634 121.937 115.505 121.909 115.375 121.887C115.246 121.865 115.115 121.848 114.984 121.838C114.853 121.827 114.721 121.822 114.59 121.823C114.458 121.824 114.327 121.831 114.196 121.844C114.065 121.857 113.934 121.875 113.805 121.9C113.676 121.924 113.548 121.954 113.421 121.99C113.294 122.026 113.169 122.067 113.046 122.114Z"   fill="#FFFFFF" >
</path>
<path d="M118.519 124.114C118.454 123.999 118.384 123.887 118.31 123.778C118.235 123.669 118.156 123.563 118.072 123.461C117.987 123.359 117.899 123.261 117.806 123.166C117.713 123.072 117.616 122.982 117.515 122.896C117.414 122.811 117.31 122.73 117.202 122.653C117.094 122.577 116.982 122.505 116.868 122.439C116.753 122.372 116.636 122.311 116.516 122.254C116.396 122.198 116.274 122.147 116.15 122.102C116.025 122.056 115.899 122.017 115.771 121.982C115.643 121.948 115.514 121.92 115.384 121.897C115.253 121.874 115.122 121.857 114.99 121.846C114.858 121.834 114.726 121.829 114.593 121.83C114.461 121.83 114.328 121.837 114.197 121.849C114.065 121.861 113.934 121.879 113.803 121.903C113.673 121.927 113.544 121.956 113.416 121.991C113.288 122.026 113.163 122.067 113.039 122.114C105.218 124.388 97.1073 125.522 88.9663 125.484C86.9321 125.494 84.9002 125.43 82.8706 125.294C80.841 125.158 78.8189 124.949 76.8044 124.667C74.7899 124.385 72.7882 124.031 70.7993 123.605C68.8104 123.179 66.8394 122.682 64.8864 122.114C64.7635 122.067 64.6388 122.026 64.5123 121.99C64.3858 121.955 64.2579 121.925 64.1287 121.901C63.9994 121.877 63.8694 121.858 63.7385 121.846C63.6077 121.833 63.4765 121.826 63.345 121.825C63.2136 121.824 63.0823 121.829 62.9513 121.84C62.8203 121.851 62.69 121.868 62.5605 121.89C62.4309 121.912 62.3026 121.94 62.1756 121.974C62.0486 122.008 61.9233 122.047 61.7998 122.092C61.6763 122.137 61.555 122.188 61.436 122.243C61.317 122.299 61.2007 122.36 61.0872 122.426C60.9736 122.492 60.8633 122.563 60.756 122.639C60.6488 122.715 60.5452 122.796 60.4452 122.881C60.3451 122.966 60.2491 123.055 60.1571 123.149C60.0651 123.243 59.9774 123.34 59.8941 123.442C59.8108 123.543 59.7322 123.648 59.6583 123.757C59.5843 123.865 59.5154 123.977 59.4515 124.092C58.4148 126.001 59.1618 128.215 60.0384 130.125C60.4272 130.984 60.8617 131.829 61.3419 132.643C61.3419 132.643 59.7411 126.724 61.1285 125.005C61.1864 124.915 61.2494 124.829 61.3175 124.747C61.3856 124.665 61.4583 124.587 61.5357 124.514C61.613 124.44 61.6944 124.371 61.7799 124.308C61.8654 124.244 61.9544 124.185 62.0468 124.132C62.1393 124.078 62.2345 124.03 62.3326 123.988C62.4307 123.946 62.531 123.91 62.6334 123.88C62.7358 123.849 62.8396 123.825 62.9449 123.807C63.0502 123.789 63.1561 123.778 63.2628 123.772C63.6211 123.772 63.9717 123.833 64.3147 123.939C72.2728 126.275 80.5281 127.454 88.8291 127.439L89.0959 127.439C97.3969 127.454 105.652 126.275 113.61 123.939C113.953 123.833 114.304 123.772 114.662 123.772C115.531 123.818 116.332 124.274 116.804 125.005C118.214 126.724 116.591 132.665 116.591 132.665C117.063 131.851 117.536 131.015 117.932 130.147C118.801 128.238 119.556 126.032 118.519 124.114Z"   fill="#EB8F00" >
</path>
<ellipse cx="26.30841064453125" cy="129.75318145751953" rx="13.53717041015625" ry="13.510658264160156"   fill="#FCDD30" >
</ellipse>
<ellipse cx="151.46282958984375" cy="132.30242156982422" rx="13.53717041015625" ry="13.510658264160156"   fill="#FCDC2F" >
</ellipse>
<path d="M25.2449 121.032C25.4117 120.864 25.5293 120.645 25.5684 120.398C25.6453 119.905 25.4049 119.423 24.9642 119.195L17.6797 115.442L18.9456 107.273C19.0212 106.78 18.8161 106.336 18.375 106.11C17.9339 105.885 17.4842 106.057 17.1346 106.41L11.5307 112.068L4.0079 108.43C3.5666 108.203 2.95642 108.213 2.60593 108.567L2.62696 108.589C2.27718 108.942 2.23461 109.526 2.45938 109.972L6.0763 117.665L0.469626 123.238C0.120459 123.591 -0.0501242 124.045 0.173532 124.491C0.396828 124.936 0.793625 125.1 1.28223 125.024L9.39547 123.764L13.1361 131.149C13.3612 131.594 13.8447 131.841 14.3333 131.763C14.5776 131.724 14.7958 131.608 14.9626 131.439C15.1293 131.271 15.245 131.051 15.2835 130.805L16.5673 122.661L24.6163 121.354C24.8598 121.314 25.0785 121.2 25.2449 121.032ZM19.9402 123.447L18.7447 123.696C18.1291 123.772 17.5527 124.272 17.454 124.897L17.2936 125.915L27.3977 137.492C27.9557 138.131 28.8621 138.318 29.616 137.942C30.0285 137.737 30.4553 137.473 30.7709 137.154C31.1897 136.73 31.5421 136.172 31.8136 135.656C32.2313 134.863 32.0356 133.878 31.3611 133.298L19.9402 123.447ZM27.4341 111.551C27.4415 111.504 27.4353 111.456 27.4135 111.413C27.3698 111.326 27.2775 111.278 27.1824 111.294L25.61 111.562L24.8862 110.125C24.8423 110.038 24.7597 109.993 24.6648 110.009C24.5698 110.026 24.5182 110.106 24.503 110.202L24.2595 111.755L22.6626 112.069C22.5675 112.085 22.4725 112.159 22.4572 112.256L22.463 112.257C22.4479 112.353 22.5072 112.451 22.593 112.494L24.0326 113.28L23.779 114.82C23.7638 114.917 23.7884 115.008 23.8739 115.052C23.9595 115.096 24.0405 115.075 24.109 115.005L25.2453 113.85L26.6696 114.573C26.7554 114.616 26.8595 114.598 26.9276 114.529C26.9618 114.494 26.983 114.45 26.9903 114.403C26.9975 114.357 26.9909 114.309 26.9691 114.265L26.2508 112.831L27.3715 111.676C27.4054 111.641 27.427 111.597 27.4341 111.551ZM13.4108 106.335C13.4168 106.296 13.4117 106.255 13.3932 106.218C13.3561 106.145 13.2779 106.104 13.1973 106.118L11.8651 106.344L11.2517 105.127C11.2146 105.054 11.1448 105.015 11.0643 105.029C10.9838 105.043 10.9401 105.111 10.9273 105.193L10.7209 106.508L9.36792 106.774C9.28726 106.788 9.20676 106.85 9.1938 106.932L9.19889 106.933C9.18593 107.015 9.23624 107.097 9.30883 107.135L10.5286 107.8L10.3138 109.105C10.301 109.187 10.3217 109.264 10.3943 109.302C10.4667 109.339 10.5354 109.321 10.5933 109.262L11.556 108.283L12.7629 108.896C12.8355 108.932 12.9237 108.917 12.9815 108.858C13.0104 108.828 13.0284 108.791 13.0346 108.752C13.0406 108.713 13.0352 108.672 13.0165 108.635L12.4081 107.42L13.3575 106.441C13.3863 106.411 13.4046 106.374 13.4108 106.335ZM1.93931 114.499C1.92111 114.475 1.89617 114.457 1.8667 114.449C1.8076 114.432 1.74532 114.455 1.71117 114.508L1.14774 115.381L0.169081 115.102C0.109991 115.085 0.0529194 115.105 0.0189898 115.158C-0.014804 115.211 -0.00033257 115.271 0.037549 115.32L0.647174 116.115L0.0944408 117.021C0.0602871 117.073 0.0527837 117.151 0.0908888 117.201L0.0939014 117.199C0.13201 117.248 0.202739 117.262 0.26035 117.24L1.25159 116.891L1.8507 117.685C1.88858 117.735 1.94169 117.763 1.99931 117.741C2.05692 117.719 2.0826 117.67 2.08036 117.607L2.04396 116.556L2.99916 116.187C3.0568 116.164 3.09394 116.107 3.09146 116.043C3.09018 116.012 3.07908 115.982 3.06087 115.958C3.04285 115.935 3.01772 115.917 2.98807 115.908L2.01279 115.627L1.96965 114.584C1.96821 114.552 1.95751 114.523 1.93931 114.499Z"   fill="#7948EA" >
</path>
<path d="M90.8326 86.9732C114.196 86.9732 133.136 83.1837 133.136 78.5091C133.136 75.6696 127.067 73.1566 116.467 71.6212C115.012 71.4104 113.768 70.4509 113.237 69.0831L97.4491 28.4229C97.4386 28.3957 97.4273 28.3688 97.4152 28.3422C97.4031 28.3157 97.3904 28.2895 97.3769 28.2636C97.3634 28.2377 97.3493 28.2122 97.3344 28.1871C97.3195 28.162 97.304 28.1373 97.2877 28.1131C97.2714 28.0889 97.2545 28.0651 97.2369 28.0417C97.2195 28.0184 97.2013 27.9956 97.1824 27.9733C97.1636 27.951 97.1442 27.9292 97.1242 27.9079C97.1041 27.8866 97.0836 27.866 97.0624 27.8459C97.0413 27.8257 97.0196 27.8062 96.9974 27.7872C96.9751 27.7683 96.9525 27.75 96.9292 27.7322C96.906 27.7146 96.8823 27.6975 96.8581 27.6812C96.8339 27.6648 96.8093 27.649 96.7843 27.634C96.7592 27.6189 96.7339 27.6046 96.708 27.5909C96.6822 27.5773 96.656 27.5643 96.6295 27.5521C96.603 27.5399 96.5761 27.5284 96.5489 27.5176C96.5217 27.5069 96.4943 27.4969 96.4666 27.4877L75.4505 20.4794C74.1016 20.0293 72.8811 21.4314 73.5157 22.7016L77.8714 31.4166C77.8929 31.4597 77.9125 31.5037 77.9299 31.5485C77.9475 31.5933 77.963 31.6389 77.9763 31.6851C77.9898 31.7313 78.0011 31.7781 78.0101 31.8254C78.0193 31.8726 78.0263 31.9202 78.0311 31.9681C78.036 32.0159 78.0386 32.0639 78.0391 32.1121C78.0396 32.1602 78.0379 32.2083 78.034 32.2563C78.0301 32.3043 78.024 32.352 78.0157 32.3994C78.0076 32.4468 77.9972 32.4938 77.9847 32.5403L68.2621 68.7131C67.841 70.2793 66.5061 71.4276 64.8985 71.665C54.4839 73.2044 48.5291 75.6966 48.5291 78.5091C48.5291 83.1837 67.4691 86.9732 90.8326 86.9732Z"   fill="url(#linear_fill_RQGNq5MjmdBFuTS8PCLX2)" >
</path>
<defs>
<radialGradient id="linear_fill_T_UobH3PVxKYvjOkjxxnw" cx="0" cy="0" r="1" gradientTransform="translate(89.1644287109375 117.47286987304688) rotate(90) scale(43.4185791015625, 43.4185791015625)" gradientUnits="userSpaceOnUse">
<stop offset="0" stop-color="#FDE030"  />
<stop offset="0.5" stop-color="#FDE030"  />
<stop offset="0.92" stop-color="#F7C02B"  />
<stop offset="1" stop-color="#F4A223"  />
</radialGradient>
<linearGradient id="linear_fill_RQGNq5MjmdBFuTS8PCLX2" x1="90.8326416015625" y1="86.97312927246094" x2="90.8326416015625" y2="20.3934326171875" gradientUnits="userSpaceOnUse">
<stop offset="0" stop-color="#B721FF"  />
<stop offset="1" stop-color="#21D4FD"  />
</linearGradient>
</defs>
</svg>
